<svg width="1920" height="1089" viewBox="0 0 1920 1089" fill="none" xmlns="http://www.w3.org/2000/svg">
<g clip-path="url(#clip0_1517_857)">
<rect width="1920" height="1089" fill="black"/>
<g opacity="0.7">
<g filter="url(#filter0_f_1517_857)">
<ellipse cx="201.761" cy="411.376" rx="201.761" ry="411.376" transform="matrix(1.02082 -0.135461 0.817262 0.546338 174.421 -263.149)" fill="#FF7E46"/>
</g>
<mask id="mask0_1517_857" style="mask-type:alpha" maskUnits="userSpaceOnUse" x="-182" y="-501" width="1729" height="845">
<path d="M1546.38 343.867L1446.84 -104.865L434.5 -443.453L155.19 -500.474L-181.723 -332.485L-42.4973 -111.432L817.196 146.582L1546.38 343.867Z" fill="url(#paint0_linear_1517_857)"/>
</mask>
<g mask="url(#mask0_1517_857)">
<mask id="mask1_1517_857" style="mask-type:alpha" maskUnits="userSpaceOnUse" x="-120" y="-572" width="1678" height="922">
<path d="M-119.414 -142.704C-114.119 -335.158 -51.8701 -561.088 -53.2062 -571.153L1481.86 -107.852L1557.12 349.22L-119.414 -142.704Z" fill="url(#paint1_linear_1517_857)"/>
</mask>
<g mask="url(#mask1_1517_857)">
<path d="M493.572 -344.394C661.724 -293.928 801.439 -182.501 799.948 -120.645C798.458 -58.7892 728.434 1.95708 548.022 -52.1887C458.619 -79.0206 349.071 -70.2502 243.594 -132.932C136.224 -196.739 162.843 -273.725 163.594 -304.928C165.085 -366.784 325.421 -394.86 493.572 -344.394Z" fill="#FFE178"/>
<path d="M491.431 -339.701C671.77 -285.577 799.543 -193.276 798.386 -145.253C797.229 -97.2297 727.67 -54.6285 547.332 -108.752C457.965 -135.573 348.654 -134.788 243.055 -190.568C135.559 -247.35 161.714 -305.471 162.297 -329.697C163.455 -377.72 311.093 -393.824 491.431 -339.701Z" fill="#FFE178"/>
<g filter="url(#filter2_f_1517_857)">
<path d="M512.861 -319.487C714.985 -258.825 858.047 -149.268 856.618 -89.9701C855.189 -30.6718 777.055 24.2591 574.93 -36.403C474.768 -66.4641 352.026 -56.2582 233.736 -121.502C113.321 -187.919 142.936 -265.543 143.657 -295.456C145.086 -354.754 310.736 -380.15 512.861 -319.487Z" fill="#FFE178"/>
</g>
<g filter="url(#filter3_f_1517_857)">
<path d="M535.802 -293.094C784.965 -202.119 989.626 -55.0602 987.777 21.6593C985.929 98.3788 857.27 143.303 614.862 70.5509C494.737 34.4987 338.3 71.7689 196.502 -9.26884C52.1568 -91.7624 69.9261 -227.564 70.8586 -266.265C72.707 -342.985 247.16 -398.483 535.802 -293.094Z" fill="#FFE178"/>
</g>
<g filter="url(#filter4_f_1517_857)">
<path d="M600.699 -254.032C861.709 -175.697 1102.67 -3.81835 1100.86 71.1909C1099.06 146.2 960.722 186.358 699.712 108.023C570.369 69.2044 412.632 50.6974 259.862 -32.7756C104.346 -117.748 31.8129 -296.173 32.7245 -334.011C34.5318 -409.021 339.689 -332.367 600.699 -254.032Z" fill="#FFE178"/>
</g>
<g filter="url(#filter5_f_1517_857)">
<path d="M720.205 -188.008C989.935 -107.056 1219.71 63.7344 1217.86 140.454C1216.01 217.173 1073.08 257.813 803.346 176.861C669.682 136.745 472.606 -26.9429 314.722 -112.808C154.001 -200.216 193.281 -293.82 194.213 -332.522C196.062 -409.241 450.476 -268.96 720.205 -188.008Z" fill="#FFE178"/>
</g>
<g filter="url(#filter6_f_1517_857)">
<path d="M517.624 -261.096C753.637 -190.263 954.383 -28.1837 952.535 48.5358C950.686 125.255 825.369 171.182 589.355 100.349C472.399 65.2482 329.901 43.0365 191.867 -36.8714C51.3544 -118.215 86.0391 -213.198 86.9716 -251.899C88.8201 -328.618 281.61 -331.929 517.624 -261.096Z" fill="#FFE178"/>
</g>
</g>
</g>
</g>
<g filter="url(#filter7_f_1517_857)">
<ellipse cx="208.576" cy="408.888" rx="208.576" ry="408.888" transform="matrix(1.00879 -0.221153 0.784232 0.587315 -525.525 332.707)" fill="#FF7E46" fill-opacity="0.5"/>
</g>
<mask id="mask2_1517_857" style="mask-type:alpha" maskUnits="userSpaceOnUse" x="-880" y="56" width="1690" height="894">
<path d="M809.275 949.498L746.691 430.828L-247.488 103.728L-524.867 56.1033L-879.493 275.929L-757.534 525.251L89.2317 768.459L809.275 949.498Z" fill="url(#paint2_linear_1517_857)"/>
</mask>
<g mask="url(#mask2_1517_857)">
<mask id="mask3_1517_857" style="mask-type:alpha" maskUnits="userSpaceOnUse" x="-833" y="-13" width="1653" height="969">
<path d="M-832.601 493.902C-810.961 268.163 -728.943 -0.683529 -729.441 -12.3785L782.318 424.93L819.671 955.031L-832.601 493.902Z" fill="url(#paint3_linear_1517_857)"/>
</mask>
<g mask="url(#mask3_1517_857)">
<path d="M-196.187 215.682C-30.5639 263.252 101.167 384.161 94.4259 456.7C87.6843 529.24 11.7926 605.179 -165.907 554.14C-253.965 528.848 -365.392 546.629 -466.655 480.457C-569.738 413.096 -536.327 321.116 -532.926 284.523C-526.185 211.984 -361.81 168.112 -196.187 215.682Z" fill="#FFE178" fill-opacity="0.5"/>
<g filter="url(#filter8_f_1517_857)">
<path d="M-198.748 221.325C-21.1208 272.343 100.164 371.673 94.9301 427.991C89.6962 484.308 15.8104 538.966 -161.816 487.948C-249.839 462.666 -360.35 471.081 -462.322 412.999C-566.126 353.873 -534.781 284.016 -532.14 255.607C-526.906 199.289 -376.374 170.307 -198.748 221.325Z" fill="#FFE178" fill-opacity="0.5"/>
</g>
<g filter="url(#filter9_f_1517_857)">
<path d="M-178.805 243.527C20.2797 300.708 155.551 419.198 149.088 488.738C142.625 558.278 59.0308 627.963 -140.054 570.782C-238.711 542.446 -363.588 562.813 -477.582 494.518C-593.623 424.996 -557.131 332.062 -553.871 296.983C-547.408 227.443 -377.89 186.346 -178.805 243.527Z" fill="#FFE178" fill-opacity="0.5"/>
</g>
<g filter="url(#filter10_f_1517_857)">
<path d="M-157.862 272.862C86.1834 362.317 280.518 520.5 272.157 610.47C263.795 700.441 130 761.871 -108.763 693.293C-227.081 659.31 -388.295 713.681 -524.703 628.503C-663.562 541.794 -634.114 381.544 -629.896 336.158C-621.535 246.188 -440.576 169.234 -157.862 272.862Z" fill="#FFE178" fill-opacity="0.5"/>
</g>
<g filter="url(#filter11_f_1517_857)">
<path d="M-95.5987 314.157C161.487 387.997 390.397 572.757 382.222 660.722C374.047 748.686 230.88 805.198 -26.2052 731.358C-153.603 694.767 -311.409 683.909 -458.697 596.631C-608.632 507.785 -666.815 303.811 -662.691 259.437C-654.516 171.473 -352.684 240.317 -95.5987 314.157Z" fill="#FFE178" fill-opacity="0.5"/>
</g>
<g filter="url(#filter12_f_1517_857)">
<path d="M19.5588 383.282C285.233 459.589 502.93 643.842 494.569 733.812C486.207 823.782 338.351 881.174 72.6771 804.867C-58.9772 767.053 -244.241 588.875 -396.494 499.146C-551.481 407.805 -503.872 295.496 -499.654 250.11C-491.292 160.14 -246.115 306.975 19.5588 383.282Z" fill="#FFE178" fill-opacity="0.5"/>
</g>
<g filter="url(#filter13_f_1517_857)">
<path d="M-178.937 311.581C53.5279 378.349 242.636 554.391 234.274 644.361C225.913 734.331 95.4088 796.707 -137.056 729.938C-252.253 696.851 -394.349 680.61 -527.049 596.497C-662.134 510.872 -619.05 397.263 -614.832 351.877C-606.47 261.907 -411.401 244.812 -178.937 311.581Z" fill="#FFE178" fill-opacity="0.5"/>
</g>
</g>
</g>
<g style="mix-blend-mode:overlay" filter="url(#filter14_f_1517_857)">
<circle cx="1332" cy="424" r="304" fill="#D9D9D9"/>
</g>
<mask id="mask4_1517_857" style="mask-type:alpha" maskUnits="userSpaceOnUse" x="167" y="-167" width="3061" height="2481">
<path d="M167 1066.5C540.118 1602.37 1016.21 2285.89 1032.44 2313.9L3227.38 1080.39L2361.94 -167L167 1066.5Z" fill="url(#paint4_linear_1517_857)"/>
</mask>
<g mask="url(#mask4_1517_857)">
<path d="M2649.22 1520.6C2896.78 1381.48 2971.64 1072.4 2852.15 900.17C2732.66 727.94 2475.63 558.238 2210.02 707.505C2078.4 781.474 1838.7 756.156 1741.83 929.804C1643.21 1106.57 1842.38 1321.13 1902.66 1408.01C2022.15 1580.24 2401.66 1659.72 2649.22 1520.6Z" fill="url(#paint5_linear_1517_857)"/>
<g filter="url(#filter15_f_1517_857)">
<path d="M2636.02 1507.52C2901.52 1358.31 2976.97 1086.4 2874.26 938.356C2771.55 790.314 2536.58 652.329 2271.08 801.535C2139.51 875.474 1908.43 862.437 1803.26 1024C1696.21 1188.47 1872.47 1370.05 1924.29 1444.73C2027 1592.78 2370.52 1656.73 2636.02 1507.52Z" fill="url(#paint6_linear_1517_857)"/>
</g>
<g filter="url(#filter16_f_1517_857)">
<path d="M2110.73 1503C2408.31 1335.76 2480.03 1012.5 2353.4 829.978C2226.77 647.459 1948.31 471.032 1650.74 638.263C1503.27 721.134 1224.48 677.997 1112.34 867.345C998.189 1060.09 1222.16 1301.68 1286.04 1393.75C1412.67 1576.27 1813.15 1670.23 2110.73 1503Z" fill="url(#paint7_linear_1517_857)"/>
</g>
<g filter="url(#filter17_f_1517_857)">
<path d="M2023.41 1462.08C2359.75 1210.84 2499.84 803.088 2351.63 589.474C2203.43 375.86 1856.73 249.726 1499.85 450.286C1322.99 549.674 934.119 444.622 797.805 669.078C659.041 897.566 909.81 1161.58 984.572 1269.34C1132.78 1482.95 1633.78 1753.13 2023.41 1462.08Z" fill="url(#paint8_linear_1517_857)"/>
</g>
<g filter="url(#filter18_f_1517_857)">
<path d="M2140.55 1306.07C2524.82 1090.11 2664.69 628.982 2519.79 420.13C2374.89 211.278 2017.46 98.3341 1633.18 314.285C1442.76 421.3 1156.25 471.529 1002.16 702.675C845.312 937.973 1095.31 1193.39 1168.4 1298.75C1313.3 1507.6 1756.28 1522.02 2140.55 1306.07Z" fill="url(#paint9_linear_1517_857)"/>
</g>
<g filter="url(#filter19_f_1517_857)">
<path d="M2285.6 1138.65C2682.71 915.484 2829.28 441.866 2681.08 228.252C2532.87 14.6378 2165.16 -99.6845 1768.05 123.481C1571.26 234.07 1275.77 286.823 1115.77 524.588C952.9 766.624 1209.15 1027.55 1283.91 1135.31C1432.12 1348.93 1888.5 1361.82 2285.6 1138.65Z" fill="url(#paint10_linear_1517_857)"/>
</g>
<g filter="url(#filter20_f_1517_857)">
<path d="M1903.82 1340.47C2251.3 1145.2 2355.13 695.598 2206.92 481.983C2058.72 268.369 1716.94 139.471 1369.47 334.741C1197.29 431.507 948.793 492.176 818.021 713.517C684.9 938.835 934.386 1203.57 1009.15 1311.32C1157.35 1524.94 1556.35 1535.74 1903.82 1340.47Z" fill="url(#paint11_linear_1517_857)"/>
</g>
</g>
</g>
<defs>
<filter id="filter0_f_1517_857" x="73.7182" y="-540.694" width="1285.73" height="949.929" filterUnits="userSpaceOnUse" color-interpolation-filters="sRGB">
<feFlood flood-opacity="0" result="BackgroundImageFix"/>
<feBlend mode="normal" in="SourceGraphic" in2="BackgroundImageFix" result="shape"/>
<feGaussianBlur stdDeviation="124.268" result="effect1_foregroundBlur_1517_857"/>
</filter>
<filter id="filter2_f_1517_857" x="105.137" y="-389.108" width="786.287" height="413.904" filterUnits="userSpaceOnUse" color-interpolation-filters="sRGB">
<feFlood flood-opacity="0" result="BackgroundImageFix"/>
<feBlend mode="normal" in="SourceGraphic" in2="BackgroundImageFix" result="shape"/>
<feGaussianBlur stdDeviation="17.3975" result="effect1_foregroundBlur_1517_857"/>
</filter>
<filter id="filter3_f_1517_857" x="19.993" y="-400.988" width="1017.5" height="558.078" filterUnits="userSpaceOnUse" color-interpolation-filters="sRGB">
<feFlood flood-opacity="0" result="BackgroundImageFix"/>
<feBlend mode="normal" in="SourceGraphic" in2="BackgroundImageFix" result="shape"/>
<feGaussianBlur stdDeviation="24.8536" result="effect1_foregroundBlur_1517_857"/>
</filter>
<filter id="filter4_f_1517_857" x="-101.493" y="-498.873" width="1336.58" height="783.667" filterUnits="userSpaceOnUse" color-interpolation-filters="sRGB">
<feFlood flood-opacity="0" result="BackgroundImageFix"/>
<feBlend mode="normal" in="SourceGraphic" in2="BackgroundImageFix" result="shape"/>
<feGaussianBlur stdDeviation="67.1047" result="effect1_foregroundBlur_1517_857"/>
</filter>
<filter id="filter5_f_1517_857" x="-143.712" y="-687.766" width="1694.62" height="1241.98" filterUnits="userSpaceOnUse" color-interpolation-filters="sRGB">
<feFlood flood-opacity="0" result="BackgroundImageFix"/>
<feBlend mode="normal" in="SourceGraphic" in2="BackgroundImageFix" result="shape"/>
<feGaussianBlur stdDeviation="166.519" result="effect1_foregroundBlur_1517_857"/>
</filter>
<filter id="filter6_f_1517_857" x="-71.5658" y="-466.021" width="1178.21" height="755.615" filterUnits="userSpaceOnUse" color-interpolation-filters="sRGB">
<feFlood flood-opacity="0" result="BackgroundImageFix"/>
<feBlend mode="normal" in="SourceGraphic" in2="BackgroundImageFix" result="shape"/>
<feGaussianBlur stdDeviation="77.0461" result="effect1_foregroundBlur_1517_857"/>
</filter>
<filter id="filter7_f_1517_857" x="-626.564" y="33.6095" width="1264.22" height="986.234" filterUnits="userSpaceOnUse" color-interpolation-filters="sRGB">
<feFlood flood-opacity="0" result="BackgroundImageFix"/>
<feBlend mode="normal" in="SourceGraphic" in2="BackgroundImageFix" result="shape"/>
<feGaussianBlur stdDeviation="124.268" result="effect1_foregroundBlur_1517_857"/>
</filter>
<filter id="filter8_f_1517_857" x="-548.55" y="184.931" width="653.584" height="333.242" filterUnits="userSpaceOnUse" color-interpolation-filters="sRGB">
<feFlood flood-opacity="0" result="BackgroundImageFix"/>
<feBlend mode="normal" in="SourceGraphic" in2="BackgroundImageFix" result="shape"/>
<feGaussianBlur stdDeviation="4.97072" result="effect1_foregroundBlur_1517_857"/>
</filter>
<filter id="filter9_f_1517_857" x="-596.641" y="181.72" width="780.746" height="444.962" filterUnits="userSpaceOnUse" color-interpolation-filters="sRGB">
<feFlood flood-opacity="0" result="BackgroundImageFix"/>
<feBlend mode="normal" in="SourceGraphic" in2="BackgroundImageFix" result="shape"/>
<feGaussianBlur stdDeviation="17.3975" result="effect1_foregroundBlur_1517_857"/>
</filter>
<filter id="filter10_f_1517_857" x="-685.068" y="173.494" width="1007.19" height="598.864" filterUnits="userSpaceOnUse" color-interpolation-filters="sRGB">
<feFlood flood-opacity="0" result="BackgroundImageFix"/>
<feBlend mode="normal" in="SourceGraphic" in2="BackgroundImageFix" result="shape"/>
<feGaussianBlur stdDeviation="24.8536" result="effect1_foregroundBlur_1517_857"/>
</filter>
<filter id="filter11_f_1517_857" x="-797.104" y="83.9097" width="1313.75" height="815.743" filterUnits="userSpaceOnUse" color-interpolation-filters="sRGB">
<feFlood flood-opacity="0" result="BackgroundImageFix"/>
<feBlend mode="normal" in="SourceGraphic" in2="BackgroundImageFix" result="shape"/>
<feGaussianBlur stdDeviation="67.1047" result="effect1_foregroundBlur_1517_857"/>
</filter>
<filter id="filter12_f_1517_857" x="-842.841" y="-111.198" width="1670.68" height="1284.61" filterUnits="userSpaceOnUse" color-interpolation-filters="sRGB">
<feFlood flood-opacity="0" result="BackgroundImageFix"/>
<feBlend mode="normal" in="SourceGraphic" in2="BackgroundImageFix" result="shape"/>
<feGaussianBlur stdDeviation="166.519" result="effect1_foregroundBlur_1517_857"/>
</filter>
<filter id="filter13_f_1517_857" x="-778.756" y="116.898" width="1167.39" height="795.116" filterUnits="userSpaceOnUse" color-interpolation-filters="sRGB">
<feFlood flood-opacity="0" result="BackgroundImageFix"/>
<feBlend mode="normal" in="SourceGraphic" in2="BackgroundImageFix" result="shape"/>
<feGaussianBlur stdDeviation="77.0461" result="effect1_foregroundBlur_1517_857"/>
</filter>
<filter id="filter14_f_1517_857" x="828" y="-80" width="1008" height="1008" filterUnits="userSpaceOnUse" color-interpolation-filters="sRGB">
<feFlood flood-opacity="0" result="BackgroundImageFix"/>
<feBlend mode="normal" in="SourceGraphic" in2="BackgroundImageFix" result="shape"/>
<feGaussianBlur stdDeviation="100" result="effect1_foregroundBlur_1517_857"/>
</filter>
<filter id="filter15_f_1517_857" x="1759.44" y="727.355" width="1168.89" height="875.101" filterUnits="userSpaceOnUse" color-interpolation-filters="sRGB">
<feFlood flood-opacity="0" result="BackgroundImageFix"/>
<feBlend mode="normal" in="SourceGraphic" in2="BackgroundImageFix" result="shape"/>
<feGaussianBlur stdDeviation="4.97072" result="effect1_foregroundBlur_1517_857"/>
</filter>
<filter id="filter16_f_1517_857" x="1045.64" y="536.407" width="1402.32" height="1088.5" filterUnits="userSpaceOnUse" color-interpolation-filters="sRGB">
<feFlood flood-opacity="0" result="BackgroundImageFix"/>
<feBlend mode="normal" in="SourceGraphic" in2="BackgroundImageFix" result="shape"/>
<feGaussianBlur stdDeviation="17.3975" result="effect1_foregroundBlur_1517_857"/>
</filter>
<filter id="filter17_f_1517_857" x="706.974" y="299.79" width="1753.17" height="1339.29" filterUnits="userSpaceOnUse" color-interpolation-filters="sRGB">
<feFlood flood-opacity="0" result="BackgroundImageFix"/>
<feBlend mode="normal" in="SourceGraphic" in2="BackgroundImageFix" result="shape"/>
<feGaussianBlur stdDeviation="24.8536" result="effect1_foregroundBlur_1517_857"/>
</filter>
<filter id="filter18_f_1517_857" x="817.19" y="63.5841" width="1892.79" height="1532.44" filterUnits="userSpaceOnUse" color-interpolation-filters="sRGB">
<feFlood flood-opacity="0" result="BackgroundImageFix"/>
<feBlend mode="normal" in="SourceGraphic" in2="BackgroundImageFix" result="shape"/>
<feGaussianBlur stdDeviation="67.1047" result="effect1_foregroundBlur_1517_857"/>
</filter>
<filter id="filter19_f_1517_857" x="729.55" y="-330.84" width="2341.17" height="1964.71" filterUnits="userSpaceOnUse" color-interpolation-filters="sRGB">
<feFlood flood-opacity="0" result="BackgroundImageFix"/>
<feBlend mode="normal" in="SourceGraphic" in2="BackgroundImageFix" result="shape"/>
<feGaussianBlur stdDeviation="166.519" result="effect1_foregroundBlur_1517_857"/>
</filter>
<filter id="filter20_f_1517_857" x="625.495" y="84.464" width="1801.1" height="1549.22" filterUnits="userSpaceOnUse" color-interpolation-filters="sRGB">
<feFlood flood-opacity="0" result="BackgroundImageFix"/>
<feBlend mode="normal" in="SourceGraphic" in2="BackgroundImageFix" result="shape"/>
<feGaussianBlur stdDeviation="77.0461" result="effect1_foregroundBlur_1517_857"/>
</filter>
<linearGradient id="paint0_linear_1517_857" x1="778.657" y1="-145.021" x2="267.721" y2="-57.0077" gradientUnits="userSpaceOnUse">
<stop stop-color="#C4C4C4"/>
<stop offset="0.943414" stop-color="#C4C4C4" stop-opacity="0"/>
</linearGradient>
<linearGradient id="paint1_linear_1517_857" x1="512.152" y1="-311.87" x2="441.93" y2="-75.4602" gradientUnits="userSpaceOnUse">
<stop stop-color="#C4C4C4"/>
<stop offset="1" stop-color="#C4C4C4" stop-opacity="0"/>
</linearGradient>
<linearGradient id="paint2_linear_1517_857" x1="74.976" y1="429.616" x2="-456.197" y2="470.579" gradientUnits="userSpaceOnUse">
<stop stop-color="#C4C4C4"/>
<stop offset="0.943414" stop-color="#C4C4C4" stop-opacity="0"/>
</linearGradient>
<linearGradient id="paint3_linear_1517_857" x1="-180.168" y1="252.496" x2="-260.84" y2="537.078" gradientUnits="userSpaceOnUse">
<stop stop-color="#C4C4C4"/>
<stop offset="1" stop-color="#C4C4C4" stop-opacity="0"/>
</linearGradient>
<linearGradient id="paint4_linear_1517_857" x1="1813.05" y1="1600.56" x2="1318.12" y2="654.072" gradientUnits="userSpaceOnUse">
<stop stop-color="#C4C4C4"/>
<stop offset="1" stop-color="#C4C4C4" stop-opacity="0"/>
</linearGradient>
<linearGradient id="paint5_linear_1517_857" x1="2634.84" y1="1528.68" x2="2145.87" y2="658.603" gradientUnits="userSpaceOnUse">
<stop stop-color="#FF9100"/>
<stop offset="0.745192" stop-color="#998748"/>
</linearGradient>
<linearGradient id="paint6_linear_1517_857" x1="2621.64" y1="1515.6" x2="2199.46" y2="764.355" gradientUnits="userSpaceOnUse">
<stop stop-color="#FF9100"/>
<stop offset="0.745192" stop-color="#998748"/>
</linearGradient>
<linearGradient id="paint7_linear_1517_857" x1="2094.62" y1="1512.05" x2="1565.62" y2="570.743" gradientUnits="userSpaceOnUse">
<stop stop-color="#FF9100"/>
<stop offset="0.745192" stop-color="#998748"/>
</linearGradient>
<linearGradient id="paint8_linear_1517_857" x1="2034.5" y1="1462.27" x2="1382.38" y2="301.872" gradientUnits="userSpaceOnUse">
<stop stop-color="#FF9100"/>
<stop offset="0.745192" stop-color="#998748"/>
</linearGradient>
<linearGradient id="paint9_linear_1517_857" x1="2147.64" y1="1302.08" x2="1584.96" y2="300.816" gradientUnits="userSpaceOnUse">
<stop stop-color="#FF9100"/>
<stop offset="0.745192" stop-color="#998748"/>
</linearGradient>
<linearGradient id="paint10_linear_1517_857" x1="2292.93" y1="1134.53" x2="1717.42" y2="110.438" gradientUnits="userSpaceOnUse">
<stop stop-color="#FF9100"/>
<stop offset="0.745192" stop-color="#998748"/>
</linearGradient>
<linearGradient id="paint11_linear_1517_857" x1="1910.24" y1="1336.87" x2="1343.45" y2="328.297" gradientUnits="userSpaceOnUse">
<stop stop-color="#FF9100"/>
<stop offset="0.745192" stop-color="#998748"/>
</linearGradient>
<clipPath id="clip0_1517_857">
<rect width="1920" height="1089" fill="white"/>
</clipPath>
</defs>
</svg>
